Genre:Crime | Drama | Thriller
Language:English
IMDb:http://www.imdb.com/title/tt1225302/
Source:DVD

General
Complete name :The Big I Am 2010 DvDRip H264 Feel-Free
Format : MPEG-4
Format profile : Base Media
Codec ID : isom
File size : 1.18 GiB
Duration : 1h 42mn
Overall bit rate : 1 660 Kbps
Video #2
ID : 2
Format : AVC
Format/Info : Advanced Video Codec
Format profile : Baseline@L3.0
Format settings, CABAC : No
Format settings, ReFrames : 1 frame
Muxing mode : Container profile=Baseline@1.3
Codec ID : avc1
Codec ID/Info : Advanced Video Coding
Duration : 1h 42mn
Bit rate mode : Variable
Bit rate : 1 503 Kbps
Width : 640 pixels
Height : 352 pixels
Display aspect ratio : 16:9
Frame rate mode : Constant
Frame rate : 25.000 fps
Resolution : 24 bits
Colorimetry : 4:2:0
Scan type : Progressive
Bits/(Pixel*Frame) : 0.267
Stream size : 1.07 GiB (91%)
Audio #1
ID : 1
Format : AAC
Format/Info : Advanced Audio Codec
Format version : Version 4
Format profile : LC
Format settings, SBR : No
Codec ID : 40
Duration : 1h 42mn
Bit rate mode : Constant
Bit rate : 152 Kbps
Channel(s) : 2 channels
Channel positions : L R
Sampling rate : 44.1 KHz
Resolution : 16 bits
Stream size : 111 MiB (9%)

Plot:
A cruel twist of fate catapults small time crook Mickey Skinner into the big league, as head of a brutal London gang poised on the brink of a lucrative human-trafficking deal